<mxfile host="app.diagrams.net" modified="2021-10-19T05:42:29.532Z" agent="5.0 (Windows NT 10.0; Win64; x64) AppleWebKit/537.36 (KHTML, like Gecko) Chrome/94.0.4606.81 Safari/537.36 Edg/94.0.992.47" etag="jXGe7LYwQOnVh5W9LvnO" version="15.5.5" type="github">
  <diagram id="C5RBs43oDa-KdzZeNtuy" name="背板测试流程">
    <mxGraphModel dx="784" dy="482" grid="1" gridSize="10" guides="1" tooltips="1" connect="1" arrows="1" fold="1" page="1" pageScale="1" pageWidth="827" pageHeight="1169" math="0" shadow="0">
      <root>
        <mxCell id="WIyWlLk6GJQsqaUBKTNV-0" />
        <mxCell id="WIyWlLk6GJQsqaUBKTNV-1" parent="WIyWlLk6GJQsqaUBKTNV-0" />
        <mxCell id="U5By7kQHrwsn1RTSyT56-1" value="人工放入治具" style="rounded=1;whiteSpace=wrap;html=1;" vertex="1" parent="WIyWlLk6GJQsqaUBKTNV-1">
          <mxGeometry x="250" y="20" width="120" height="40" as="geometry" />
        </mxCell>
        <mxCell id="U5By7kQHrwsn1RTSyT56-2" value="" style="endArrow=classic;html=1;rounded=0;exitX=0.5;exitY=1;exitDx=0;exitDy=0;entryX=0.5;entryY=0;entryDx=0;entryDy=0;" edge="1" parent="WIyWlLk6GJQsqaUBKTNV-1" source="U5By7kQHrwsn1RTSyT56-1" target="U5By7kQHrwsn1RTSyT56-3">
          <mxGeometry width="50" height="50" relative="1" as="geometry">
            <mxPoint x="470" y="250" as="sourcePoint" />
            <mxPoint x="330" y="110" as="targetPoint" />
          </mxGeometry>
        </mxCell>
        <mxCell id="U5By7kQHrwsn1RTSyT56-6" value="" style="edgeStyle=orthogonalEdgeStyle;rounded=0;orthogonalLoop=1;jettySize=auto;html=1;" edge="1" parent="WIyWlLk6GJQsqaUBKTNV-1" source="U5By7kQHrwsn1RTSyT56-3" target="U5By7kQHrwsn1RTSyT56-5">
          <mxGeometry relative="1" as="geometry" />
        </mxCell>
        <mxCell id="U5By7kQHrwsn1RTSyT56-3" value="连接前板（测试板）" style="rounded=1;whiteSpace=wrap;html=1;" vertex="1" parent="WIyWlLk6GJQsqaUBKTNV-1">
          <mxGeometry x="250" y="90" width="120" height="40" as="geometry" />
        </mxCell>
        <mxCell id="U5By7kQHrwsn1RTSyT56-8" value="" style="edgeStyle=orthogonalEdgeStyle;rounded=0;orthogonalLoop=1;jettySize=auto;html=1;" edge="1" parent="WIyWlLk6GJQsqaUBKTNV-1" source="U5By7kQHrwsn1RTSyT56-5" target="U5By7kQHrwsn1RTSyT56-7">
          <mxGeometry relative="1" as="geometry">
            <Array as="points">
              <mxPoint x="310" y="230" />
              <mxPoint x="310" y="230" />
            </Array>
          </mxGeometry>
        </mxCell>
        <mxCell id="U5By7kQHrwsn1RTSyT56-5" value="按压设置按键，前板发送测试指令" style="whiteSpace=wrap;html=1;rounded=1;" vertex="1" parent="WIyWlLk6GJQsqaUBKTNV-1">
          <mxGeometry x="250" y="160" width="120" height="40" as="geometry" />
        </mxCell>
        <mxCell id="U5By7kQHrwsn1RTSyT56-10" value="异常" style="edgeStyle=orthogonalEdgeStyle;rounded=0;orthogonalLoop=1;jettySize=auto;html=1;" edge="1" parent="WIyWlLk6GJQsqaUBKTNV-1" source="U5By7kQHrwsn1RTSyT56-7" target="U5By7kQHrwsn1RTSyT56-9">
          <mxGeometry relative="1" as="geometry" />
        </mxCell>
        <mxCell id="U5By7kQHrwsn1RTSyT56-12" value="正常" style="edgeStyle=orthogonalEdgeStyle;rounded=0;orthogonalLoop=1;jettySize=auto;html=1;" edge="1" parent="WIyWlLk6GJQsqaUBKTNV-1" source="U5By7kQHrwsn1RTSyT56-7" target="U5By7kQHrwsn1RTSyT56-11">
          <mxGeometry relative="1" as="geometry" />
        </mxCell>
        <mxCell id="U5By7kQHrwsn1RTSyT56-16" value="" style="edgeStyle=orthogonalEdgeStyle;rounded=0;orthogonalLoop=1;jettySize=auto;html=1;fontSize=16;" edge="1" parent="WIyWlLk6GJQsqaUBKTNV-1" source="U5By7kQHrwsn1RTSyT56-7">
          <mxGeometry relative="1" as="geometry">
            <mxPoint x="210" y="270" as="targetPoint" />
          </mxGeometry>
        </mxCell>
        <mxCell id="U5By7kQHrwsn1RTSyT56-7" value="前后板通讯" style="rhombus;whiteSpace=wrap;html=1;rounded=1;" vertex="1" parent="WIyWlLk6GJQsqaUBKTNV-1">
          <mxGeometry x="270" y="230" width="80" height="80" as="geometry" />
        </mxCell>
        <mxCell id="U5By7kQHrwsn1RTSyT56-9" value="前板低压灯点亮（红色）" style="whiteSpace=wrap;html=1;rounded=1;" vertex="1" parent="WIyWlLk6GJQsqaUBKTNV-1">
          <mxGeometry x="410" y="240" width="120" height="60" as="geometry" />
        </mxCell>
        <mxCell id="U5By7kQHrwsn1RTSyT56-22" value="异常" style="edgeStyle=orthogonalEdgeStyle;rounded=0;orthogonalLoop=1;jettySize=auto;html=1;fontSize=12;" edge="1" parent="WIyWlLk6GJQsqaUBKTNV-1" source="U5By7kQHrwsn1RTSyT56-11" target="U5By7kQHrwsn1RTSyT56-19">
          <mxGeometry relative="1" as="geometry" />
        </mxCell>
        <mxCell id="U5By7kQHrwsn1RTSyT56-25" value="" style="edgeStyle=orthogonalEdgeStyle;rounded=0;orthogonalLoop=1;jettySize=auto;html=1;fontSize=12;" edge="1" parent="WIyWlLk6GJQsqaUBKTNV-1" source="U5By7kQHrwsn1RTSyT56-11" target="U5By7kQHrwsn1RTSyT56-23">
          <mxGeometry relative="1" as="geometry" />
        </mxCell>
        <mxCell id="U5By7kQHrwsn1RTSyT56-27" value="" style="edgeStyle=orthogonalEdgeStyle;rounded=0;orthogonalLoop=1;jettySize=auto;html=1;fontSize=12;" edge="1" parent="WIyWlLk6GJQsqaUBKTNV-1" source="U5By7kQHrwsn1RTSyT56-11" target="U5By7kQHrwsn1RTSyT56-26">
          <mxGeometry relative="1" as="geometry" />
        </mxCell>
        <mxCell id="U5By7kQHrwsn1RTSyT56-11" value="控制IO测试" style="rhombus;whiteSpace=wrap;html=1;rounded=1;" vertex="1" parent="WIyWlLk6GJQsqaUBKTNV-1">
          <mxGeometry x="270" y="350" width="80" height="80" as="geometry" />
        </mxCell>
        <mxCell id="U5By7kQHrwsn1RTSyT56-19" value="&lt;span&gt;前板低压灯点亮（红色）&lt;/span&gt;" style="whiteSpace=wrap;html=1;rounded=1;" vertex="1" parent="WIyWlLk6GJQsqaUBKTNV-1">
          <mxGeometry x="410" y="360" width="120" height="60" as="geometry" />
        </mxCell>
        <mxCell id="U5By7kQHrwsn1RTSyT56-23" value="外部控制IO口测试&lt;br&gt;1、4个IO口测试，输出高电平，点亮4个外界led灯" style="text;html=1;strokeColor=none;fillColor=none;align=left;verticalAlign=middle;whiteSpace=wrap;rounded=0;fontSize=12;" vertex="1" parent="WIyWlLk6GJQsqaUBKTNV-1">
          <mxGeometry x="40" y="362.5" width="175" height="55" as="geometry" />
        </mxCell>
        <mxCell id="U5By7kQHrwsn1RTSyT56-24" value="前后板通讯测试" style="text;html=1;strokeColor=none;fillColor=none;align=left;verticalAlign=middle;whiteSpace=wrap;rounded=0;fontSize=12;" vertex="1" parent="WIyWlLk6GJQsqaUBKTNV-1">
          <mxGeometry x="40" y="247.5" width="170" height="45" as="geometry" />
        </mxCell>
        <mxCell id="U5By7kQHrwsn1RTSyT56-29" value="异常" style="edgeStyle=orthogonalEdgeStyle;rounded=0;orthogonalLoop=1;jettySize=auto;html=1;fontSize=12;" edge="1" parent="WIyWlLk6GJQsqaUBKTNV-1" source="U5By7kQHrwsn1RTSyT56-26" target="U5By7kQHrwsn1RTSyT56-28">
          <mxGeometry relative="1" as="geometry" />
        </mxCell>
        <mxCell id="U5By7kQHrwsn1RTSyT56-26" value="背板硬件自检" style="rhombus;whiteSpace=wrap;html=1;rounded=1;" vertex="1" parent="WIyWlLk6GJQsqaUBKTNV-1">
          <mxGeometry x="270" y="470" width="80" height="80" as="geometry" />
        </mxCell>
        <mxCell id="U5By7kQHrwsn1RTSyT56-28" value="&lt;span&gt;前板低压灯点亮（红色）&lt;/span&gt;" style="whiteSpace=wrap;html=1;rounded=1;" vertex="1" parent="WIyWlLk6GJQsqaUBKTNV-1">
          <mxGeometry x="410" y="480" width="120" height="60" as="geometry" />
        </mxCell>
        <mxCell id="U5By7kQHrwsn1RTSyT56-30" value="背板通讯接口自检&lt;br&gt;1、猫眼串口自检&lt;br&gt;2、电量检测自检" style="text;html=1;strokeColor=none;fillColor=none;align=center;verticalAlign=middle;whiteSpace=wrap;rounded=0;fontSize=12;" vertex="1" parent="WIyWlLk6GJQsqaUBKTNV-1">
          <mxGeometry x="40" y="495" width="115" height="30" as="geometry" />
        </mxCell>
      </root>
    </mxGraphModel>
  </diagram>
</mxfile>
